# xmcd
#
# Track frame offsets: 
#        180
#        12606
#        26163
#        42118
#        54913
#        69669
#        83769
#        96327
#        109960
#        121466
#        135767
#        148938
#        162244
#        176275
#        190096
#        201939
#        214945
#        226288
#        238373
#        252333
#        264185
#
# Disc length: 3698 seconds
#
# Revision: 0
# Processed by: cddbd v1.5.2PL0 Copyright (c) Steve Scherf et al.
# Submitted via: ExactAudioCopy v0.95b4
#
DISCID=2d0e7015
DTITLE=Various Artist - 125 Blues Hits 3
DYEAR=2006
DGENRE=Blues
TTITLE0=His spirit lives on - Big Joe Williams
TTITLE1=Brownskin sugar plum - Blind Boy Fuller
TTITLE2=Nobody in town can bake a sweet jelly roll like mine - Bessie 
TTITLE2=Smith
TTITLE3=22 - 20 Blues - Skip James
TTITLE4=Thirsty mama blues - Hot Lips Page
TTITLE5=I'm still in the dark - Big Joe Turner
TTITLE6=Gamblin man blues champion - Champion Jack Dupree
TTITLE7=I don't believe in love - Brownie McGhee
TTITLE8=Can't do like you used to - Lightnin Hopkins
TTITLE9=Grinder man - John Lee Hooker
TTITLE10=Mean mistreater mama - Leroy Carr
TTITLE11=You can't get that stuff no more - Tampa Red
TTITLE12=All alone blues - Sonny Terry
TTITLE13=Money tree man - Alice Moore
TTITLE14=Shreveport blues - Little Brother Montgomery
TTITLE15=Good morning blues - Leadbelly
TTITLE16=Cross road blues - Robert Johnson
TTITLE17=Revenue man blues - Charlie Patton
TTITLE18=Lead pencil blues - Johnnie Temple
TTITLE19=Jelly Roll Baker - Lonnie Johnson
TTITLE20=Big billy blues - Big Bill Broonzy
EXTD=
EXTT0=
EXTT1=
EXTT2=
EXTT3=
EXTT4=
EXTT5=
EXTT6=
EXTT7=
EXTT8=
EXTT9=
EXTT10=
EXTT11=
EXTT12=
EXTT13=
EXTT14=
EXTT15=
EXTT16=
EXTT17=
EXTT18=
EXTT19=
EXTT20=
PLAYORDER=
